<svg xmlns="http://www.w3.org/2000/svg" viewBox="0 0 55.04 59.36"><defs><style>.cls-1{fill:#fff;stroke:#000;stroke-miterlimit:10;stroke-width:0.5px;}</style></defs><title>Asset 2@700x</title><g id="Layer_2" data-name="Layer 2"><g id="Layer_1-2" data-name="Layer 1"><path class="cls-1" d="M48.87,15.33a23.74,23.74,0,0,0-37,29.73A20.55,20.55,0,1,0,43.91,19.32,17.37,17.37,0,0,0,16.83,41.07a14.19,14.19,0,0,0,12.84,5.16,14,14,0,0,0,7.09-3,14.2,14.2,0,0,0,2.18-19.93,10.92,10.92,0,0,0-7.38-4,12,12,0,0,0-1.89,0A11,11,0,0,0,21.8,37.08a7.83,7.83,0,0,0,7.87,2.7,7.72,7.72,0,0,0,3.1-1.51,7.82,7.82,0,0,0,1.2-11,4.68,4.68,0,0,0-6.49-.71,4.53,4.53,0,0,0-1.7,3.1,5.28,5.28,0,0,0,1,3.4L29,31.29A3.18,3.18,0,0,1,28.62,30a1.76,1.76,0,0,1,.65-1.18,1.6,1.6,0,0,1,.4-.23,1.75,1.75,0,0,1,2.07.5A5,5,0,0,1,31,36a4.85,4.85,0,0,1-1.31.73A4.92,4.92,0,0,1,24,35.28a8.14,8.14,0,0,1,5.64-13.19,8.35,8.35,0,0,1,1.58,0,8.13,8.13,0,0,1,5.46,3A11.32,11.32,0,0,1,19.06,39.28a14.51,14.51,0,0,1,2.23-20.39,14.56,14.56,0,0,1,20.39,2.22A17.69,17.69,0,0,1,14.09,43.27,20.88,20.88,0,0,1,46.64,17.12,24.06,24.06,0,1,1,9.12,47.26,27.22,27.22,0,0,1,29.42,3L27.26.26A30.09,30.09,0,0,0,6.89,49.05a26.92,26.92,0,0,0,42-33.72Z"/></g></g></svg>