<svg xmlns="http://www.w3.org/2000/svg" viewBox="0 0 352.77 78.81"><defs><style>.cls-1{fill:#f9b233;}.cls-2,.cls-3{fill:none;}.cls-3{stroke:#1d1d1b;stroke-miterlimit:10;stroke-width:5px;}.cls-4{fill:#1d1d1b;}</style></defs><title>Asset 1@700x</title><g id="Layer_2" data-name="Layer 2"><g id="Layer_1-2" data-name="Layer 1"><rect class="cls-1" x="2.5" y="2.5" width="73.81" height="73.81"/><path class="cls-2" d="M76.7,9.07V4c-.51-.44-1-.87-1.57-1.29H68.7A44.57,44.57,0,0,1,76.7,9.07Z"/><path class="cls-2" d="M15.19,64.92A38.27,38.27,0,0,1,42.76,2.75H27.69A42,42,0,0,0,12.31,67.23a38.83,38.83,0,0,0,10,8.83h8.71A34.67,34.67,0,0,1,15.19,64.92Z"/><path class="cls-2" d="M76.7,60.78V49.58A34.83,34.83,0,0,1,53.82,76.06h8.62a39.91,39.91,0,0,0,4.16-2.91A38.32,38.32,0,0,0,76.7,60.78Z"/><path class="cls-2" d="M16.87,5.91a45,45,0,0,1,4.49-3.16H14.94L14.57,3A48.48,48.48,0,0,0,2.11,18v9.6A44.71,44.71,0,0,1,16.87,5.91Z"/><path class="cls-2" d="M76.7,72.64v-6a41,41,0,0,1-8.23,8.87c-.24.2-.49.38-.74.57h5.69A45.85,45.85,0,0,0,76.7,72.64Z"/><path class="cls-2" d="M62.31,2.75h-15c.61,0,1.23.09,1.85.16A38.06,38.06,0,0,1,74.86,17c.65.82,1.26,1.66,1.84,2.5v-6A41.56,41.56,0,0,0,62.31,2.75Z"/><path class="cls-2" d="M7.18,76.06c-.83-.89-1.65-1.81-2.42-2.77-.94-1.17-1.82-2.39-2.65-3.63v6.2c.05.07.11.13.17.2Z"/><path class="cls-2" d="M2.11,12.21A51.34,51.34,0,0,1,10.3,2.75H5C4,3.82,3,4.92,2.11,6.06Z"/><path class="cls-2" d="M11.4,76.06h5.66a42.34,42.34,0,0,1-7.09-7A44.69,44.69,0,0,1,2.11,54.29v9.56a49.47,49.47,0,0,0,5,7.57A47.43,47.43,0,0,0,11.4,76.06Z"/><path class="cls-2" d="M48.85,5.89A35.27,35.27,0,0,0,17.53,63a31.92,31.92,0,1,0,49.78-40,28.58,28.58,0,1,0-44.57,35.8A25.24,25.24,0,0,0,62.1,27.24,21.9,21.9,0,0,0,28,54.67,18.56,18.56,0,1,0,56.89,31.43a15.22,15.22,0,0,0-23.73,19A11.87,11.87,0,1,0,51.67,35.62,8.52,8.52,0,1,0,38.38,46.3a5.18,5.18,0,0,0,8.08-6.5,1.85,1.85,0,0,0-2.59-.28,1.88,1.88,0,0,0-.68,1.24,1.83,1.83,0,0,0,.4,1.35A1.5,1.5,0,1,1,41.25,44a4.84,4.84,0,1,1,7.55-6.06A8.18,8.18,0,0,1,36,48.18,11.53,11.53,0,1,1,54,33.74,14.87,14.87,0,1,1,30.82,52.36a18.21,18.21,0,0,1,28.4-22.81,21.56,21.56,0,1,1-33.61,27A24.9,24.9,0,0,1,64.44,25.37a28.24,28.24,0,0,1-44,35.37A31.59,31.59,0,1,1,69.65,21.18a34.69,34.69,0,0,1,7,15.27V25.29a38.13,38.13,0,0,0-4.18-6.42A35,35,0,0,0,48.85,5.89Z"/><path d="M14.57,3l.37-.29H10.3a51.34,51.34,0,0,0-8.19,9.46V18A48.48,48.48,0,0,1,14.57,3Z"/><path d="M2.11,75.86v.2h.17C2.22,76,2.16,75.93,2.11,75.86Z"/><path d="M12.31,67.23A42,42,0,0,1,27.69,2.75H21.36A44.57,44.57,0,0,0,2.11,27.63V54.29A44.69,44.69,0,0,0,10,69.11a42.34,42.34,0,0,0,7.09,7h5.29A38.83,38.83,0,0,1,12.31,67.23Z"/><path d="M7.1,71.42a49.47,49.47,0,0,1-5-7.57v5.81c.83,1.24,1.71,2.46,2.65,3.63.77,1,1.59,1.88,2.42,2.77H11.4A47.43,47.43,0,0,1,7.1,71.42Z"/><path d="M73.42,76.06H76.7V72.64A45.85,45.85,0,0,1,73.42,76.06Z"/><path d="M21.06,11.12a38.31,38.31,0,0,0-5.87,53.8A34.67,34.67,0,0,0,31.06,76.06H53.82A34.83,34.83,0,0,0,76.7,49.58V36.45a34.69,34.69,0,0,0-7-15.27A31.59,31.59,0,1,0,20.4,60.74a28.24,28.24,0,0,0,44-35.37A24.9,24.9,0,0,0,25.61,56.55a21.56,21.56,0,1,0,33.61-27,18.21,18.21,0,0,0-28.4,22.81A14.87,14.87,0,1,0,54,33.74,11.53,11.53,0,1,0,36,48.18,8.18,8.18,0,0,0,48.8,37.93,4.84,4.84,0,1,0,41.25,44a1.5,1.5,0,1,0,2.34-1.88,1.83,1.83,0,0,1-.4-1.35,1.88,1.88,0,0,1,.68-1.24,1.85,1.85,0,0,1,2.59.28,5.18,5.18,0,0,1-8.08,6.5A8.52,8.52,0,1,1,51.67,35.62,11.87,11.87,0,1,1,33.16,50.48a15.22,15.22,0,0,1,23.73-19A18.56,18.56,0,0,1,28,54.67,21.9,21.9,0,0,1,62.1,27.24,25.24,25.24,0,1,1,22.74,58.86a28.58,28.58,0,1,1,44.57-35.8A31.92,31.92,0,1,1,17.53,63a35.27,35.27,0,1,1,55-44.17,38.13,38.13,0,0,1,4.18,6.42v-5.8c-.58-.84-1.19-1.68-1.84-2.5A38.06,38.06,0,0,0,49.18,2.91c-.62-.07-1.24-.12-1.85-.16H42.76A38,38,0,0,0,21.06,11.12Z"/><path d="M5,2.75H2.11V6.06C3,4.92,4,3.82,5,2.75Z"/><path d="M76.7,2.75H75.13c.53.42,1.06.85,1.57,1.29Z"/><path d="M66.6,73.15a39.91,39.91,0,0,1-4.16,2.91h5.29c.25-.19.5-.37.74-.57a41,41,0,0,0,8.23-8.87V60.78A38.32,38.32,0,0,1,66.6,73.15Z"/><path d="M76.7,13.47V9.07a44.57,44.57,0,0,0-8-6.32H62.31A41.56,41.56,0,0,1,76.7,13.47Z"/><rect class="cls-3" x="2.5" y="2.5" width="347.77" height="73.81"/><path class="cls-4" d="M126.23,30.42v28h-7.86V54.9c-2,2.76-5.88,4-9,4-7.19,0-13.73-5.58-13.73-14.58s6.54-14.58,13.73-14.58c3.25,0,7,1.2,9,4V30.42Zm-8.1,13.92a7.23,7.23,0,0,0-7.26-7.2,7.16,7.16,0,0,0-7.25,7.2,7.26,7.26,0,1,0,14.51,0Z"/><path class="cls-4" d="M131.1,49.38h7.38c0,1.62,1.38,3.36,4.14,3.36,2.28,0,4-1,4-2.58,0-1.2-.95-1.8-3.06-2.34l-3.71-.9C132.66,45,131.7,41,131.7,38c0-4.32,4.5-8.34,11-8.34,5.1,0,11.1,2.52,11,9.12h-7.5c0-1.86-1.55-2.88-3.42-2.88s-3.23.9-3.23,2.34,1.2,2,2.76,2.4l4.62,1.2c6.71,1.8,7.55,6,7.55,8.28,0,5.88-6,8.76-11.75,8.76S131.16,55.56,131.1,49.38Z"/><path class="cls-4" d="M190,44.34c0,9-6.54,14.58-13.73,14.58-3.19,0-7-1.2-9-4v3.48h-7.86V15.48h7.86v18.3c2-2.82,5.81-4,9-4C183.47,29.76,190,35.34,190,44.34Zm-8,0a7.11,7.11,0,0,0-7.19-7.2,7.23,7.23,0,1,0,7.19,7.2Z"/><path class="cls-4" d="M222.47,46.92H201.35c.85,3.24,3.48,5,7.26,5a9.72,9.72,0,0,0,7.32-3.12l4.62,4.62c-2.64,3.54-7.56,5.46-12.48,5.46-8.58,0-14.87-5.88-14.87-14.52,0-9.06,6.83-14.7,14.87-14.7s14.52,5.64,14.52,14.22C222.59,44.7,222.53,45.66,222.47,46.92Zm-7.74-5.1c-.24-3.3-3-5.28-6.54-5.28-3.18,0-6,1.5-6.84,5.28Z"/><path class="cls-4" d="M225.59,49.38H233c0,1.62,1.38,3.36,4.14,3.36,2.28,0,4-1,4-2.58,0-1.2-1-1.8-3.06-2.34l-3.72-.9C227.15,45,226.19,41,226.19,38c0-4.32,4.5-8.34,11-8.34,5.1,0,11.1,2.52,11,9.12h-7.5c0-1.86-1.56-2.88-3.42-2.88s-3.24.9-3.24,2.34,1.2,2,2.76,2.4l4.62,1.2c6.72,1.8,7.56,6,7.56,8.28,0,5.88-6,8.76-11.76,8.76S225.65,55.56,225.59,49.38Z"/><path class="cls-4" d="M270.23,36.48h-5.94v21.9h-7.86V36.48h-5.1V30.42h5.1V20.16h7.86V30.42h5.94Z"/><path class="cls-4" d="M271.73,44.34c0-8.88,7.08-14.64,15.06-14.64s15.06,5.76,15.06,14.64-7.08,14.58-15.06,14.58S271.73,53.16,271.73,44.34Zm22.14,0a7.08,7.08,0,1,0-14.16,0,7.08,7.08,0,1,0,14.16,0Z"/><path class="cls-4" d="M305,49.38h7.38c0,1.62,1.38,3.36,4.14,3.36,2.28,0,4-1,4-2.58,0-1.2-1-1.8-3.06-2.34l-3.72-.9C306.53,45,305.57,41,305.57,38c0-4.32,4.5-8.34,11-8.34,5.1,0,11.1,2.52,11,9.12h-7.5c0-1.86-1.56-2.88-3.42-2.88s-3.24.9-3.24,2.34,1.2,2,2.76,2.4l4.62,1.2c6.72,1.8,7.56,6,7.56,8.28,0,5.88-6,8.76-11.76,8.76S305,55.56,305,49.38Z"/><line class="cls-3" x1="76.7" y1="2.75" x2="76.7" y2="76.06"/></g></g></svg>