<svg xmlns="http://www.w3.org/2000/svg" viewBox="0 0 352.77 78.81"><defs><style>.cls-1{fill:#fff;}</style></defs><title>Asset 3@700x</title><g id="Layer_2" data-name="Layer 2"><g id="Layer_1-2" data-name="Layer 1"><path class="cls-1" d="M126.23,30.42v28h-7.86V54.9c-2,2.76-5.88,4-9,4-7.19,0-13.73-5.58-13.73-14.58s6.54-14.58,13.73-14.58c3.24,0,7,1.2,9,4V30.42Zm-8.1,13.92a7.26,7.26,0,1,0-7.26,7.26A7.23,7.23,0,0,0,118.13,44.34Z"/><path class="cls-1" d="M131.1,49.38h7.38c0,1.62,1.37,3.36,4.13,3.36,2.28,0,4-1,4-2.58,0-1.2-.95-1.8-3.06-2.34l-3.72-.9C132.66,45,131.69,41,131.69,38c0-4.32,4.5-8.34,11-8.34,5.09,0,11.09,2.52,11,9.12h-7.5c0-1.86-1.56-2.88-3.42-2.88s-3.23.9-3.23,2.34,1.2,2,2.75,2.4l4.63,1.2c6.71,1.8,7.55,6,7.55,8.28,0,5.88-6,8.76-11.76,8.76S131.16,55.56,131.1,49.38Z"/><path class="cls-1" d="M190,44.34c0,9-6.54,14.58-13.74,14.58-3.18,0-7-1.2-9-4v3.48h-7.85V15.48h7.85v18.3c2-2.82,5.82-4,9-4C183.47,29.76,190,35.34,190,44.34Zm-8,0a7.11,7.11,0,0,0-7.2-7.2,7.23,7.23,0,1,0,7.2,7.2Z"/><path class="cls-1" d="M222.47,46.92H201.35c.84,3.24,3.48,5,7.26,5a9.72,9.72,0,0,0,7.32-3.12l4.62,4.62c-2.64,3.54-7.56,5.46-12.48,5.46-8.58,0-14.88-5.88-14.88-14.52,0-9.06,6.84-14.7,14.88-14.7s14.52,5.64,14.52,14.22C222.59,44.7,222.53,45.66,222.47,46.92Zm-7.74-5.1c-.24-3.3-3-5.28-6.54-5.28-3.18,0-6,1.5-6.84,5.28Z"/><path class="cls-1" d="M225.59,49.38H233c0,1.62,1.38,3.36,4.14,3.36,2.28,0,4-1,4-2.58,0-1.2-1-1.8-3.06-2.34l-3.72-.9C227.15,45,226.19,41,226.19,38c0-4.32,4.5-8.34,11-8.34,5.1,0,11.1,2.52,11,9.12h-7.5c0-1.86-1.56-2.88-3.42-2.88s-3.24.9-3.24,2.34,1.2,2,2.76,2.4l4.62,1.2c6.72,1.8,7.56,6,7.56,8.28,0,5.88-6,8.76-11.76,8.76S225.65,55.56,225.59,49.38Z"/><path class="cls-1" d="M270.23,36.48h-5.94v21.9h-7.86V36.48h-5.1V30.42h5.1V20.16h7.86V30.42h5.94Z"/><path class="cls-1" d="M271.73,44.34c0-8.88,7.08-14.64,15.06-14.64s15.06,5.76,15.06,14.64-7.08,14.58-15.06,14.58S271.73,53.16,271.73,44.34Zm22.14,0a7.08,7.08,0,1,0-14.16,0,7.08,7.08,0,1,0,14.16,0Z"/><path class="cls-1" d="M305,49.38h7.38c0,1.62,1.38,3.36,4.14,3.36,2.28,0,4-1,4-2.58,0-1.2-1-1.8-3.06-2.34l-3.72-.9C306.53,45,305.57,41,305.57,38c0-4.32,4.5-8.34,11-8.34,5.1,0,11.1,2.52,11,9.12h-7.5c0-1.86-1.56-2.88-3.42-2.88s-3.24.9-3.24,2.34,1.2,2,2.76,2.4l4.62,1.2c6.72,1.8,7.56,6,7.56,8.28,0,5.88-6,8.76-11.76,8.76S305,55.56,305,49.38Z"/><path class="cls-1" d="M0,0V78.81H352.77V0ZM33.94,73.81A31.7,31.7,0,0,1,17.53,63a35.27,35.27,0,1,1,55-44.17c.6.75,1.15,1.51,1.68,2.28v7.43a34.63,34.63,0,0,0-4.55-7.4A31.59,31.59,0,1,0,20.4,60.74a28.24,28.24,0,0,0,44-35.37A24.9,24.9,0,0,0,25.61,56.55a21.56,21.56,0,1,0,33.61-27,18.21,18.21,0,0,0-28.4,22.81A14.87,14.87,0,1,0,54,33.74,11.53,11.53,0,1,0,36,48.18,8.18,8.18,0,0,0,48.8,37.93,4.84,4.84,0,1,0,41.25,44a1.5,1.5,0,1,0,2.34-1.88,1.83,1.83,0,0,1-.4-1.35,1.88,1.88,0,0,1,.68-1.24,1.85,1.85,0,0,1,2.59.28,5.18,5.18,0,0,1-8.08,6.5A8.52,8.52,0,1,1,51.67,35.62,11.87,11.87,0,1,1,33.16,50.48a15.21,15.21,0,0,1,23.72-19A18.55,18.55,0,1,1,28,54.67,21.9,21.9,0,0,1,62.1,27.24,25.24,25.24,0,1,1,22.74,58.86a28.58,28.58,0,1,1,44.57-35.8A31.72,31.72,0,0,1,74.2,39.94V46c0,.16,0,.32,0,.49A31.93,31.93,0,0,1,51,73.81ZM7.1,71.42c-.74-.93-1.43-1.88-2.1-2.85V61.4a45.53,45.53,0,0,0,5,7.71,42.13,42.13,0,0,0,4.44,4.7H9.17C8.46,73,7.77,72.24,7.1,71.42ZM12.29,5h5.8c-.41.3-.82.59-1.22.91A44.65,44.65,0,0,0,5,20.56V13.31A48.6,48.6,0,0,1,12.29,5ZM5,8.35V5H8C6.92,6.07,5.94,7.2,5,8.35Zm7.31,58.88A42,42,0,0,1,5,53.5V28.43A41.71,41.71,0,0,1,18.75,8.25,42.62,42.62,0,0,1,23.43,5h8.51A38.25,38.25,0,0,0,15.19,64.92a34.57,34.57,0,0,0,10.74,8.89H19.07A39.29,39.29,0,0,1,12.31,67.23Zm61.89-51A38,38,0,0,0,58.17,5H66.6a41.53,41.53,0,0,1,7.6,5.85ZM64.29,70.28a34.68,34.68,0,0,0,9.91-12.8v7.46a38.24,38.24,0,0,1-7.6,8.21c-.29.23-.59.44-.88.66H59A35.73,35.73,0,0,0,64.29,70.28Zm9.91-.42v4H70.42A41.34,41.34,0,0,0,74.2,69.86Zm0-63.07C73.47,6.16,72.73,5.57,72,5H74.2Zm273.57,67H79.2V5H347.77Z"/></g></g></svg>