<svg xmlns="http://www.w3.org/2000/svg" xmlns:xlink="http://www.w3.org/1999/xlink" width="27.9" height="22.9" viewBox="0 0 27.9 22.9">
  <defs>
    <clipPath id="clip-path">
      <rect width="27.9" height="22.9" fill="none"/>
    </clipPath>
    <clipPath id="clip-path-2">
      <path id="icon_color" data-name="icon color" d="M27.9,2.7a9,9,0,0,1-3.3.9A5.38,5.38,0,0,0,27.1.4a11.25,11.25,0,0,1-3.6,1.4,5.73,5.73,0,0,0-9.9,3.9c0,.5.1.9.1,1.3A15.9,15.9,0,0,1,1.9,1a6.11,6.11,0,0,0-.8,3A5.63,5.63,0,0,0,3.7,8.8a5.94,5.94,0,0,1-2.6-.7v.1a5.7,5.7,0,0,0,4.6,5.6,7.72,7.72,0,0,1-1.5.2,4.1,4.1,0,0,1-1.1-.1,5.83,5.83,0,0,0,5.4,4,11.77,11.77,0,0,1-7.1,2.5A6.6,6.6,0,0,1,0,20.3a16.52,16.52,0,0,0,8.8,2.6c10.6,0,16.3-8.8,16.3-16.3V5.9A16.93,16.93,0,0,0,27.9,2.7Z" transform="translate(2.1 4.6)" fill="#fff"/>
    </clipPath>
  </defs>
  <g id="icon_social_twitter_32" data-name="icon/social/twitter/32" clip-path="url(#clip-path)">
    <path id="icon_color-2" data-name="icon color" d="M27.9,2.7a9,9,0,0,1-3.3.9A5.38,5.38,0,0,0,27.1.4a11.25,11.25,0,0,1-3.6,1.4,5.73,5.73,0,0,0-9.9,3.9c0,.5.1.9.1,1.3A15.9,15.9,0,0,1,1.9,1a6.11,6.11,0,0,0-.8,3A5.63,5.63,0,0,0,3.7,8.8a5.94,5.94,0,0,1-2.6-.7v.1a5.7,5.7,0,0,0,4.6,5.6,7.72,7.72,0,0,1-1.5.2,4.1,4.1,0,0,1-1.1-.1,5.83,5.83,0,0,0,5.4,4,11.77,11.77,0,0,1-7.1,2.5A6.6,6.6,0,0,1,0,20.3a16.52,16.52,0,0,0,8.8,2.6c10.6,0,16.3-8.8,16.3-16.3V5.9A16.93,16.93,0,0,0,27.9,2.7Z" fill="#fff"/>
  </g>
</svg>
