<svg xmlns="http://www.w3.org/2000/svg" xmlns:xlink="http://www.w3.org/1999/xlink" width="24" height="24" viewBox="0 0 24 24">
  <defs>
    <clipPath id="clip-path">
      <rect width="24" height="24" fill="none"/>
    </clipPath>
    <clipPath id="clip-path-2">
      <path id="icon_color" data-name="icon color" d="M22.7,0H1.3A1.32,1.32,0,0,0,0,1.3V22.7A1.32,1.32,0,0,0,1.3,24H12.8V14.7H9.7V11.1h3.1V8.4c0-3.1,1.9-4.8,4.7-4.8,1.3,0,2.5.1,2.8.1V7H18.4c-1.5,0-1.8.7-1.8,1.8v2.3h3.6l-.5,3.6H16.6V24h6.1A1.32,1.32,0,0,0,24,22.7V1.3A1.32,1.32,0,0,0,22.7,0Z" transform="translate(4 4)" fill="#fff"/>
    </clipPath>
  </defs>
  <g id="icon_social_facebook_32" data-name="icon/social/facebook/32" clip-path="url(#clip-path)">
    <path id="icon_color-2" data-name="icon color" d="M22.7,0H1.3A1.32,1.32,0,0,0,0,1.3V22.7A1.32,1.32,0,0,0,1.3,24H12.8V14.7H9.7V11.1h3.1V8.4c0-3.1,1.9-4.8,4.7-4.8,1.3,0,2.5.1,2.8.1V7H18.4c-1.5,0-1.8.7-1.8,1.8v2.3h3.6l-.5,3.6H16.6V24h6.1A1.32,1.32,0,0,0,24,22.7V1.3A1.32,1.32,0,0,0,22.7,0Z" fill="#fff"/>
  </g>
</svg>
